<mxfile host="app.diagrams.net" modified="2023-11-08T13:59:29.148Z" agent="Mozilla/5.0 (X11; Linux x86_64) AppleWebKit/537.36 (KHTML, like Gecko) Chrome/119.0.0.0 Safari/537.36" etag="iAEq6W0tdfiJMQ2atSpO" version="22.0.8" type="github" pages="2">
  <diagram name="0001" id="y2zCg2tqc-IcQTNm7M6H">
    <mxGraphModel dx="1434" dy="758" grid="1" gridSize="10" guides="1" tooltips="1" connect="1" arrows="1" fold="1" page="1" pageScale="1" pageWidth="1169" pageHeight="827" math="0" shadow="0">
      <root>
        <mxCell id="sdHGfgtrLrPXHbDimJ2l-0" />
        <mxCell id="sdHGfgtrLrPXHbDimJ2l-1" parent="sdHGfgtrLrPXHbDimJ2l-0" />
        <mxCell id="sdHGfgtrLrPXHbDimJ2l-57" value="&lt;b style=&quot;font-size: 16px;&quot;&gt;闸控调度模型&lt;/b&gt;" style="text;html=1;align=left;verticalAlign=middle;resizable=0;points=[];autosize=1;strokeColor=none;fillColor=none;fontSize=16;rounded=0;labelBackgroundColor=none;" parent="sdHGfgtrLrPXHbDimJ2l-1" vertex="1">
          <mxGeometry x="40.5" y="20" width="120" height="30" as="geometry" />
        </mxCell>
        <mxCell id="DtQQWt-DvLBq8CPffun4-1" value="" style="edgeStyle=orthogonalEdgeStyle;rounded=0;orthogonalLoop=1;jettySize=auto;html=1;entryX=0.5;entryY=0;entryDx=0;entryDy=0;" edge="1" parent="sdHGfgtrLrPXHbDimJ2l-1" source="iJDq2YbVKDRwt8fmQem2-6" target="DtQQWt-DvLBq8CPffun4-0">
          <mxGeometry relative="1" as="geometry">
            <Array as="points">
              <mxPoint x="620" y="200" />
              <mxPoint x="620" y="80" />
              <mxPoint x="700" y="80" />
            </Array>
          </mxGeometry>
        </mxCell>
        <mxCell id="DtQQWt-DvLBq8CPffun4-3" value="" style="edgeStyle=orthogonalEdgeStyle;rounded=0;orthogonalLoop=1;jettySize=auto;html=1;entryX=0.5;entryY=0;entryDx=0;entryDy=0;" edge="1" parent="sdHGfgtrLrPXHbDimJ2l-1" source="iJDq2YbVKDRwt8fmQem2-6" target="DtQQWt-DvLBq8CPffun4-2">
          <mxGeometry relative="1" as="geometry">
            <Array as="points">
              <mxPoint x="620" y="200" />
              <mxPoint x="620" y="80" />
              <mxPoint x="860" y="80" />
            </Array>
          </mxGeometry>
        </mxCell>
        <mxCell id="DtQQWt-DvLBq8CPffun4-5" value="" style="edgeStyle=orthogonalEdgeStyle;rounded=0;orthogonalLoop=1;jettySize=auto;html=1;entryX=0.5;entryY=0;entryDx=0;entryDy=0;" edge="1" parent="sdHGfgtrLrPXHbDimJ2l-1" source="iJDq2YbVKDRwt8fmQem2-6" target="DtQQWt-DvLBq8CPffun4-4">
          <mxGeometry relative="1" as="geometry">
            <Array as="points">
              <mxPoint x="620" y="200" />
              <mxPoint x="620" y="80" />
              <mxPoint x="780" y="80" />
            </Array>
          </mxGeometry>
        </mxCell>
        <mxCell id="DtQQWt-DvLBq8CPffun4-7" value="" style="edgeStyle=orthogonalEdgeStyle;rounded=0;orthogonalLoop=1;jettySize=auto;html=1;entryX=0.5;entryY=0;entryDx=0;entryDy=0;" edge="1" parent="sdHGfgtrLrPXHbDimJ2l-1" source="iJDq2YbVKDRwt8fmQem2-6" target="DtQQWt-DvLBq8CPffun4-6">
          <mxGeometry relative="1" as="geometry">
            <Array as="points">
              <mxPoint x="620" y="200" />
              <mxPoint x="620" y="160" />
              <mxPoint x="700" y="160" />
            </Array>
          </mxGeometry>
        </mxCell>
        <mxCell id="DtQQWt-DvLBq8CPffun4-9" value="" style="edgeStyle=orthogonalEdgeStyle;rounded=0;orthogonalLoop=1;jettySize=auto;html=1;entryX=0.5;entryY=0;entryDx=0;entryDy=0;" edge="1" parent="sdHGfgtrLrPXHbDimJ2l-1" source="iJDq2YbVKDRwt8fmQem2-6" target="DtQQWt-DvLBq8CPffun4-8">
          <mxGeometry relative="1" as="geometry">
            <Array as="points">
              <mxPoint x="620" y="200" />
              <mxPoint x="620" y="160" />
              <mxPoint x="780" y="160" />
            </Array>
          </mxGeometry>
        </mxCell>
        <mxCell id="DtQQWt-DvLBq8CPffun4-11" value="" style="edgeStyle=orthogonalEdgeStyle;rounded=0;orthogonalLoop=1;jettySize=auto;html=1;entryX=0.5;entryY=0;entryDx=0;entryDy=0;" edge="1" parent="sdHGfgtrLrPXHbDimJ2l-1" source="iJDq2YbVKDRwt8fmQem2-6" target="DtQQWt-DvLBq8CPffun4-10">
          <mxGeometry relative="1" as="geometry">
            <Array as="points">
              <mxPoint x="620" y="200" />
              <mxPoint x="620" y="160" />
              <mxPoint x="860" y="160" />
            </Array>
          </mxGeometry>
        </mxCell>
        <mxCell id="DtQQWt-DvLBq8CPffun4-14" value="" style="edgeStyle=orthogonalEdgeStyle;rounded=0;orthogonalLoop=1;jettySize=auto;html=1;exitX=1;exitY=0.5;exitDx=0;exitDy=0;" edge="1" parent="sdHGfgtrLrPXHbDimJ2l-1" source="iJDq2YbVKDRwt8fmQem2-6" target="DtQQWt-DvLBq8CPffun4-13">
          <mxGeometry relative="1" as="geometry">
            <Array as="points">
              <mxPoint x="620" y="200" />
              <mxPoint x="620" y="240" />
              <mxPoint x="700" y="240" />
            </Array>
          </mxGeometry>
        </mxCell>
        <mxCell id="DtQQWt-DvLBq8CPffun4-16" value="" style="edgeStyle=orthogonalEdgeStyle;rounded=0;orthogonalLoop=1;jettySize=auto;html=1;exitX=1;exitY=0.5;exitDx=0;exitDy=0;" edge="1" parent="sdHGfgtrLrPXHbDimJ2l-1" source="iJDq2YbVKDRwt8fmQem2-6" target="DtQQWt-DvLBq8CPffun4-15">
          <mxGeometry relative="1" as="geometry">
            <Array as="points">
              <mxPoint x="620" y="200" />
              <mxPoint x="620" y="240" />
              <mxPoint x="780" y="240" />
            </Array>
          </mxGeometry>
        </mxCell>
        <mxCell id="DtQQWt-DvLBq8CPffun4-18" value="" style="edgeStyle=orthogonalEdgeStyle;rounded=0;orthogonalLoop=1;jettySize=auto;html=1;exitX=1;exitY=0.5;exitDx=0;exitDy=0;" edge="1" parent="sdHGfgtrLrPXHbDimJ2l-1" source="iJDq2YbVKDRwt8fmQem2-6" target="DtQQWt-DvLBq8CPffun4-17">
          <mxGeometry relative="1" as="geometry">
            <Array as="points">
              <mxPoint x="620" y="200" />
              <mxPoint x="620" y="240" />
              <mxPoint x="860" y="240" />
            </Array>
          </mxGeometry>
        </mxCell>
        <mxCell id="DtQQWt-DvLBq8CPffun4-20" value="" style="edgeStyle=orthogonalEdgeStyle;rounded=0;orthogonalLoop=1;jettySize=auto;html=1;exitX=1;exitY=0.5;exitDx=0;exitDy=0;" edge="1" parent="sdHGfgtrLrPXHbDimJ2l-1" source="iJDq2YbVKDRwt8fmQem2-6" target="DtQQWt-DvLBq8CPffun4-19">
          <mxGeometry relative="1" as="geometry">
            <Array as="points">
              <mxPoint x="620" y="200" />
              <mxPoint x="620" y="320" />
              <mxPoint x="700" y="320" />
            </Array>
          </mxGeometry>
        </mxCell>
        <mxCell id="DtQQWt-DvLBq8CPffun4-22" value="" style="edgeStyle=orthogonalEdgeStyle;rounded=0;orthogonalLoop=1;jettySize=auto;html=1;exitX=1;exitY=0.5;exitDx=0;exitDy=0;" edge="1" parent="sdHGfgtrLrPXHbDimJ2l-1" source="iJDq2YbVKDRwt8fmQem2-6" target="DtQQWt-DvLBq8CPffun4-21">
          <mxGeometry relative="1" as="geometry">
            <Array as="points">
              <mxPoint x="620" y="200" />
              <mxPoint x="620" y="320" />
              <mxPoint x="780" y="320" />
            </Array>
          </mxGeometry>
        </mxCell>
        <mxCell id="DtQQWt-DvLBq8CPffun4-24" value="" style="edgeStyle=orthogonalEdgeStyle;rounded=0;orthogonalLoop=1;jettySize=auto;html=1;exitX=1;exitY=0.5;exitDx=0;exitDy=0;" edge="1" parent="sdHGfgtrLrPXHbDimJ2l-1" source="iJDq2YbVKDRwt8fmQem2-6" target="DtQQWt-DvLBq8CPffun4-23">
          <mxGeometry relative="1" as="geometry">
            <Array as="points">
              <mxPoint x="620" y="200" />
              <mxPoint x="620" y="320" />
              <mxPoint x="860" y="320" />
            </Array>
          </mxGeometry>
        </mxCell>
        <mxCell id="DtQQWt-DvLBq8CPffun4-26" value="" style="edgeStyle=orthogonalEdgeStyle;rounded=0;orthogonalLoop=1;jettySize=auto;html=1;" edge="1" parent="sdHGfgtrLrPXHbDimJ2l-1" source="iJDq2YbVKDRwt8fmQem2-6" target="DtQQWt-DvLBq8CPffun4-25">
          <mxGeometry relative="1" as="geometry" />
        </mxCell>
        <mxCell id="iJDq2YbVKDRwt8fmQem2-6" value="控制中枢" style="rounded=0;whiteSpace=wrap;html=1;" parent="sdHGfgtrLrPXHbDimJ2l-1" vertex="1">
          <mxGeometry x="380" y="180" width="120" height="40" as="geometry" />
        </mxCell>
        <mxCell id="DtQQWt-DvLBq8CPffun4-0" value="闸门A1" style="rounded=0;whiteSpace=wrap;html=1;" vertex="1" parent="sdHGfgtrLrPXHbDimJ2l-1">
          <mxGeometry x="660" y="100" width="80" height="40" as="geometry" />
        </mxCell>
        <mxCell id="DtQQWt-DvLBq8CPffun4-2" value="闸门A3" style="rounded=0;whiteSpace=wrap;html=1;" vertex="1" parent="sdHGfgtrLrPXHbDimJ2l-1">
          <mxGeometry x="820" y="100" width="80" height="40" as="geometry" />
        </mxCell>
        <mxCell id="DtQQWt-DvLBq8CPffun4-4" value="闸门A2" style="rounded=0;whiteSpace=wrap;html=1;" vertex="1" parent="sdHGfgtrLrPXHbDimJ2l-1">
          <mxGeometry x="740" y="100" width="80" height="40" as="geometry" />
        </mxCell>
        <mxCell id="DtQQWt-DvLBq8CPffun4-6" value="闸门B1" style="rounded=0;whiteSpace=wrap;html=1;" vertex="1" parent="sdHGfgtrLrPXHbDimJ2l-1">
          <mxGeometry x="660" y="180" width="80" height="40" as="geometry" />
        </mxCell>
        <mxCell id="DtQQWt-DvLBq8CPffun4-8" value="闸门B1" style="rounded=0;whiteSpace=wrap;html=1;" vertex="1" parent="sdHGfgtrLrPXHbDimJ2l-1">
          <mxGeometry x="740" y="180" width="80" height="40" as="geometry" />
        </mxCell>
        <mxCell id="DtQQWt-DvLBq8CPffun4-10" value="闸门B3" style="rounded=0;whiteSpace=wrap;html=1;" vertex="1" parent="sdHGfgtrLrPXHbDimJ2l-1">
          <mxGeometry x="820" y="180" width="80" height="40" as="geometry" />
        </mxCell>
        <mxCell id="DtQQWt-DvLBq8CPffun4-13" value="闸门C1" style="rounded=0;whiteSpace=wrap;html=1;" vertex="1" parent="sdHGfgtrLrPXHbDimJ2l-1">
          <mxGeometry x="660" y="260" width="80" height="40" as="geometry" />
        </mxCell>
        <mxCell id="DtQQWt-DvLBq8CPffun4-15" value="闸门C2" style="rounded=0;whiteSpace=wrap;html=1;" vertex="1" parent="sdHGfgtrLrPXHbDimJ2l-1">
          <mxGeometry x="740" y="260" width="80" height="40" as="geometry" />
        </mxCell>
        <mxCell id="DtQQWt-DvLBq8CPffun4-17" value="闸门C3" style="rounded=0;whiteSpace=wrap;html=1;" vertex="1" parent="sdHGfgtrLrPXHbDimJ2l-1">
          <mxGeometry x="820" y="260" width="80" height="40" as="geometry" />
        </mxCell>
        <mxCell id="DtQQWt-DvLBq8CPffun4-19" value="闸门D1" style="rounded=0;whiteSpace=wrap;html=1;" vertex="1" parent="sdHGfgtrLrPXHbDimJ2l-1">
          <mxGeometry x="660" y="340" width="80" height="40" as="geometry" />
        </mxCell>
        <mxCell id="DtQQWt-DvLBq8CPffun4-21" value="闸门D2" style="rounded=0;whiteSpace=wrap;html=1;" vertex="1" parent="sdHGfgtrLrPXHbDimJ2l-1">
          <mxGeometry x="740" y="340" width="80" height="40" as="geometry" />
        </mxCell>
        <mxCell id="DtQQWt-DvLBq8CPffun4-23" value="闸门D3" style="rounded=0;whiteSpace=wrap;html=1;" vertex="1" parent="sdHGfgtrLrPXHbDimJ2l-1">
          <mxGeometry x="820" y="340" width="80" height="40" as="geometry" />
        </mxCell>
        <mxCell id="DtQQWt-DvLBq8CPffun4-30" value="" style="edgeStyle=orthogonalEdgeStyle;rounded=0;orthogonalLoop=1;jettySize=auto;html=1;entryX=0.5;entryY=0;entryDx=0;entryDy=0;startArrow=classic;startFill=1;endArrow=none;endFill=0;" edge="1" parent="sdHGfgtrLrPXHbDimJ2l-1" source="DtQQWt-DvLBq8CPffun4-25" target="DtQQWt-DvLBq8CPffun4-29">
          <mxGeometry relative="1" as="geometry">
            <Array as="points">
              <mxPoint x="201" y="240" />
              <mxPoint x="100" y="240" />
            </Array>
          </mxGeometry>
        </mxCell>
        <mxCell id="DtQQWt-DvLBq8CPffun4-32" value="" style="edgeStyle=orthogonalEdgeStyle;rounded=0;orthogonalLoop=1;jettySize=auto;html=1;entryX=0.5;entryY=0;entryDx=0;entryDy=0;endArrow=none;endFill=0;startArrow=classic;startFill=1;" edge="1" parent="sdHGfgtrLrPXHbDimJ2l-1" source="DtQQWt-DvLBq8CPffun4-25" target="DtQQWt-DvLBq8CPffun4-31">
          <mxGeometry relative="1" as="geometry">
            <Array as="points">
              <mxPoint x="201" y="240" />
              <mxPoint x="300" y="240" />
            </Array>
          </mxGeometry>
        </mxCell>
        <mxCell id="DtQQWt-DvLBq8CPffun4-25" value="调度计划" style="rounded=0;whiteSpace=wrap;html=1;" vertex="1" parent="sdHGfgtrLrPXHbDimJ2l-1">
          <mxGeometry x="141" y="180" width="120" height="40" as="geometry" />
        </mxCell>
        <mxCell id="DtQQWt-DvLBq8CPffun4-27" value="读取调度计划" style="text;html=1;align=center;verticalAlign=middle;resizable=0;points=[];autosize=1;strokeColor=none;fillColor=none;" vertex="1" parent="sdHGfgtrLrPXHbDimJ2l-1">
          <mxGeometry x="270" y="160" width="100" height="30" as="geometry" />
        </mxCell>
        <mxCell id="DtQQWt-DvLBq8CPffun4-28" value="执行调度计划" style="text;html=1;align=center;verticalAlign=middle;resizable=0;points=[];autosize=1;strokeColor=none;fillColor=none;" vertex="1" parent="sdHGfgtrLrPXHbDimJ2l-1">
          <mxGeometry x="510" y="160" width="100" height="30" as="geometry" />
        </mxCell>
        <mxCell id="DtQQWt-DvLBq8CPffun4-29" value="用水申请" style="rounded=0;whiteSpace=wrap;html=1;" vertex="1" parent="sdHGfgtrLrPXHbDimJ2l-1">
          <mxGeometry x="40" y="280" width="120" height="40" as="geometry" />
        </mxCell>
        <mxCell id="DtQQWt-DvLBq8CPffun4-31" value="泄洪预警" style="rounded=0;whiteSpace=wrap;html=1;" vertex="1" parent="sdHGfgtrLrPXHbDimJ2l-1">
          <mxGeometry x="240" y="280" width="120" height="40" as="geometry" />
        </mxCell>
      </root>
    </mxGraphModel>
  </diagram>
  <diagram name="0002" id="TDFgBPViRvuhW2JDrqrL">
    <mxGraphModel dx="1434" dy="758" grid="1" gridSize="10" guides="1" tooltips="1" connect="1" arrows="1" fold="1" page="1" pageScale="1" pageWidth="1169" pageHeight="827" math="0" shadow="0">
      <root>
        <mxCell id="GE-el6w7j7y8LRJmcBIe-0" />
        <mxCell id="GE-el6w7j7y8LRJmcBIe-1" parent="GE-el6w7j7y8LRJmcBIe-0" />
        <mxCell id="GE-el6w7j7y8LRJmcBIe-2" value="&lt;b style=&quot;font-size: 16px;&quot;&gt;排涝模型A&lt;/b&gt;" style="text;html=1;align=left;verticalAlign=middle;resizable=0;points=[];autosize=1;strokeColor=none;fillColor=none;fontSize=16;rounded=0;labelBackgroundColor=none;" vertex="1" parent="GE-el6w7j7y8LRJmcBIe-1">
          <mxGeometry x="40.5" y="20" width="100" height="30" as="geometry" />
        </mxCell>
        <mxCell id="GE-el6w7j7y8LRJmcBIe-3" value="" style="edgeStyle=orthogonalEdgeStyle;rounded=0;orthogonalLoop=1;jettySize=auto;html=1;exitX=1;exitY=0.5;exitDx=0;exitDy=0;" edge="1" parent="GE-el6w7j7y8LRJmcBIe-1" source="GE-el6w7j7y8LRJmcBIe-16" target="GE-el6w7j7y8LRJmcBIe-11">
          <mxGeometry relative="1" as="geometry">
            <Array as="points">
              <mxPoint x="501.5" y="353" />
            </Array>
          </mxGeometry>
        </mxCell>
        <mxCell id="GE-el6w7j7y8LRJmcBIe-4" value="" style="edgeStyle=orthogonalEdgeStyle;rounded=0;orthogonalLoop=1;jettySize=auto;html=1;exitX=0;exitY=0.5;exitDx=0;exitDy=0;" edge="1" parent="GE-el6w7j7y8LRJmcBIe-1" source="GE-el6w7j7y8LRJmcBIe-16" target="GE-el6w7j7y8LRJmcBIe-12">
          <mxGeometry relative="1" as="geometry">
            <Array as="points">
              <mxPoint x="100.5" y="353" />
            </Array>
          </mxGeometry>
        </mxCell>
        <mxCell id="GE-el6w7j7y8LRJmcBIe-5" value="" style="edgeStyle=orthogonalEdgeStyle;rounded=0;orthogonalLoop=1;jettySize=auto;html=1;" edge="1" parent="GE-el6w7j7y8LRJmcBIe-1" source="GE-el6w7j7y8LRJmcBIe-10" target="GE-el6w7j7y8LRJmcBIe-16">
          <mxGeometry relative="1" as="geometry" />
        </mxCell>
        <mxCell id="GE-el6w7j7y8LRJmcBIe-6" value="" style="edgeStyle=orthogonalEdgeStyle;rounded=0;orthogonalLoop=1;jettySize=auto;html=1;startArrow=classic;startFill=1;endArrow=none;endFill=0;" edge="1" parent="GE-el6w7j7y8LRJmcBIe-1" source="GE-el6w7j7y8LRJmcBIe-10" target="GE-el6w7j7y8LRJmcBIe-19">
          <mxGeometry relative="1" as="geometry" />
        </mxCell>
        <mxCell id="GE-el6w7j7y8LRJmcBIe-7" value="" style="edgeStyle=orthogonalEdgeStyle;rounded=0;orthogonalLoop=1;jettySize=auto;html=1;endArrow=none;endFill=0;startArrow=classic;startFill=1;" edge="1" parent="GE-el6w7j7y8LRJmcBIe-1" source="GE-el6w7j7y8LRJmcBIe-10" target="GE-el6w7j7y8LRJmcBIe-20">
          <mxGeometry relative="1" as="geometry" />
        </mxCell>
        <mxCell id="GE-el6w7j7y8LRJmcBIe-8" value="" style="edgeStyle=orthogonalEdgeStyle;rounded=0;orthogonalLoop=1;jettySize=auto;html=1;startArrow=classic;startFill=1;endArrow=none;endFill=0;" edge="1" parent="GE-el6w7j7y8LRJmcBIe-1" source="GE-el6w7j7y8LRJmcBIe-10" target="GE-el6w7j7y8LRJmcBIe-21">
          <mxGeometry relative="1" as="geometry" />
        </mxCell>
        <mxCell id="GE-el6w7j7y8LRJmcBIe-9" value="" style="edgeStyle=orthogonalEdgeStyle;rounded=0;orthogonalLoop=1;jettySize=auto;html=1;" edge="1" parent="GE-el6w7j7y8LRJmcBIe-1" source="GE-el6w7j7y8LRJmcBIe-10" target="GE-el6w7j7y8LRJmcBIe-22">
          <mxGeometry relative="1" as="geometry" />
        </mxCell>
        <mxCell id="GE-el6w7j7y8LRJmcBIe-10" value="水库" style="rounded=0;whiteSpace=wrap;html=1;" vertex="1" parent="GE-el6w7j7y8LRJmcBIe-1">
          <mxGeometry x="240.5" y="180" width="120" height="60" as="geometry" />
        </mxCell>
        <mxCell id="GE-el6w7j7y8LRJmcBIe-11" value="水闸B" style="rounded=0;whiteSpace=wrap;html=1;dashed=1;dashPattern=1 1;" vertex="1" parent="GE-el6w7j7y8LRJmcBIe-1">
          <mxGeometry x="441.5" y="392" width="120" height="60" as="geometry" />
        </mxCell>
        <mxCell id="GE-el6w7j7y8LRJmcBIe-12" value="水闸A" style="rounded=0;whiteSpace=wrap;html=1;dashed=1;dashPattern=1 2;" vertex="1" parent="GE-el6w7j7y8LRJmcBIe-1">
          <mxGeometry x="40.5" y="392" width="120" height="60" as="geometry" />
        </mxCell>
        <mxCell id="GE-el6w7j7y8LRJmcBIe-13" value="" style="edgeStyle=orthogonalEdgeStyle;rounded=0;orthogonalLoop=1;jettySize=auto;html=1;" edge="1" parent="GE-el6w7j7y8LRJmcBIe-1" source="GE-el6w7j7y8LRJmcBIe-14">
          <mxGeometry relative="1" as="geometry">
            <mxPoint x="100.5" y="592" as="targetPoint" />
          </mxGeometry>
        </mxCell>
        <mxCell id="GE-el6w7j7y8LRJmcBIe-14" value="支渠A" style="rounded=0;whiteSpace=wrap;html=1;" vertex="1" parent="GE-el6w7j7y8LRJmcBIe-1">
          <mxGeometry x="40.5" y="452" width="120" height="60" as="geometry" />
        </mxCell>
        <mxCell id="GE-el6w7j7y8LRJmcBIe-15" value="" style="edgeStyle=orthogonalEdgeStyle;rounded=0;orthogonalLoop=1;jettySize=auto;html=1;" edge="1" parent="GE-el6w7j7y8LRJmcBIe-1" source="GE-el6w7j7y8LRJmcBIe-16">
          <mxGeometry relative="1" as="geometry">
            <mxPoint x="300.5" y="463" as="targetPoint" />
          </mxGeometry>
        </mxCell>
        <mxCell id="GE-el6w7j7y8LRJmcBIe-16" value="河流" style="rounded=0;whiteSpace=wrap;html=1;" vertex="1" parent="GE-el6w7j7y8LRJmcBIe-1">
          <mxGeometry x="240.5" y="323" width="120" height="60" as="geometry" />
        </mxCell>
        <mxCell id="GE-el6w7j7y8LRJmcBIe-17" value="" style="edgeStyle=orthogonalEdgeStyle;rounded=0;orthogonalLoop=1;jettySize=auto;html=1;" edge="1" parent="GE-el6w7j7y8LRJmcBIe-1" source="GE-el6w7j7y8LRJmcBIe-18">
          <mxGeometry relative="1" as="geometry">
            <mxPoint x="501.5" y="592" as="targetPoint" />
          </mxGeometry>
        </mxCell>
        <mxCell id="GE-el6w7j7y8LRJmcBIe-18" value="支渠B" style="rounded=0;whiteSpace=wrap;html=1;" vertex="1" parent="GE-el6w7j7y8LRJmcBIe-1">
          <mxGeometry x="441.5" y="452" width="120" height="60" as="geometry" />
        </mxCell>
        <mxCell id="GE-el6w7j7y8LRJmcBIe-19" value="支流A" style="rounded=0;whiteSpace=wrap;html=1;" vertex="1" parent="GE-el6w7j7y8LRJmcBIe-1">
          <mxGeometry x="40.5" y="80" width="120" height="60" as="geometry" />
        </mxCell>
        <mxCell id="GE-el6w7j7y8LRJmcBIe-20" value="支流B" style="rounded=0;whiteSpace=wrap;html=1;" vertex="1" parent="GE-el6w7j7y8LRJmcBIe-1">
          <mxGeometry x="441.5" y="80" width="120" height="60" as="geometry" />
        </mxCell>
        <mxCell id="GE-el6w7j7y8LRJmcBIe-21" value="河流A" style="rounded=0;whiteSpace=wrap;html=1;" vertex="1" parent="GE-el6w7j7y8LRJmcBIe-1">
          <mxGeometry x="240.5" y="80" width="120" height="60" as="geometry" />
        </mxCell>
        <mxCell id="GE-el6w7j7y8LRJmcBIe-22" value="水库闸门群组A" style="rounded=0;whiteSpace=wrap;html=1;dashed=1;dashPattern=1 2;" vertex="1" parent="GE-el6w7j7y8LRJmcBIe-1">
          <mxGeometry x="240.5" y="240" width="120" height="60" as="geometry" />
        </mxCell>
      </root>
    </mxGraphModel>
  </diagram>
</mxfile>
